<svg height="100" width="100" xmlns="http://www.w3.org/2000/svg"><g fill="#000080"><path d="m50 0a3.5 3.5 0 0 0 -3.5 3.5v80a3.5 3.5 0 0 0 3.5 3.5 3.5 3.5 0 0 0 3.5-3.5v-36.5h43a3.50035 3.50035 0 0 0 3.5-3.5v-40a3.50035 3.50035 0 0 0 -3.5-3.5h-46a3.50035 3.50035 0 0 0 -.253906.00976563 3.5 3.5 0 0 0 -.246094-.00976563zm13.800781 7h9.798828v7.429688h9.800782v-7.429688h9.599609v7.429688h-9.599609v9.798828h9.599609v9.800781h-9.599609v5.970703h-9.800782v-5.970703h-9.798828v5.970703h-9.800781v-5.970703h9.800781v-9.800781h-9.800781v-9.798828h9.800781zm0 7.429688v9.798828h9.798828v-9.798828zm9.798828 9.798828v9.800781h9.800782v-9.800781z"/><path d="m38.004394 76.792481c-10.594394 1.497412-18.004394 5.07867-18.004394 10.350585 0 7.100804 12.381299 12.856934 29.999999 12.856934s30.000001-5.75613 30.000001-12.856934c0-5.27172-7.409154-8.853083-18.002931-10.350585-.488736.833445-.978981 1.665615-1.467774 2.499022 7.984477 1.107795 13.470705 3.436095 13.470705 6.1377 0 3.787095-10.745167 6.856928-24.000001 6.856928s-23.999999-3.069833-23.999999-6.856928c-.000975-2.692185 5.449671-5.018452 13.458983-6.130372-.484164-.835905-.970878-1.670153-1.454589-2.50635z"/></g></svg>